<?xml version="1.0" standalone="no"?>
<!DOCTYPE svg PUBLIC "-//W3C//DTD SVG 20010904//EN"
 "http://www.w3.org/TR/2001/REC-SVG-20010904/DTD/svg10.dtd">
<svg version="1.0" xmlns="http://www.w3.org/2000/svg"
 width="885.000000pt" height="885.000000pt" viewBox="0 0 885.000000 885.000000"
 preserveAspectRatio="xMidYMid meet">
<metadata>
Created by potrace 1.14, written by Peter Selinger 2001-2017
</metadata>
<g transform="translate(0.000000,885.000000) scale(0.100000,-0.100000)"
fill="#000000" stroke="none">
<path d="M4280 8843 c-839 -24 -1694 -306 -2380 -786 -1012 -709 -1673 -1777
-1850 -2992 -33 -226 -43 -373 -43 -640 0 -512 66 -924 227 -1410 211 -635
546 -1185 1016 -1669 624 -642 1394 -1067 2269 -1251 308 -64 557 -89 911 -89
284 0 390 7 645 44 787 114 1533 443 2156 952 143 116 422 388 546 533 882
1022 1245 2397 988 3737 -258 1338 -1132 2491 -2353 3102 -573 287 -1152 436
-1802 466 -113 5 -212 9 -220 8 -8 -1 -58 -3 -110 -5z m1647 -1823 c32 -12
757 -730 779 -772 18 -35 18 -111 0 -146 -8 -15 -182 -194 -388 -399 -318
-317 -379 -373 -414 -382 -71 -19 -140 14 -174 83 -22 47 -25 86 -9 119 6 12
118 129 248 261 l236 238 -95 -6 c-327 -23 -620 -165 -886 -431 -55 -55 -132
-143 -171 -195 -39 -52 -333 -517 -652 -1034 -320 -516 -605 -972 -633 -1013
-278 -402 -688 -692 -1109 -784 -107 -23 -327 -43 -384 -35 -122 19 -185 142
-121 237 35 51 79 69 168 69 292 0 575 101 821 293 107 84 275 260 354 371 35
48 219 341 410 649 906 1467 879 1424 1027 1585 186 202 349 327 561 431 214
105 383 152 600 166 l100 7 -236 236 c-185 185 -238 244 -244 270 -26 122 94
225 212 182z m-3304 -730 c324 -68 616 -232 874 -489 160 -160 259 -293 447
-605 106 -175 113 -200 73 -270 -52 -91 -182 -103 -253 -24 -12 12 -68 99
-125 193 -170 277 -272 407 -439 558 -248 224 -563 357 -845 357 -45 0 -97 5
-116 11 -128 43 -148 209 -33 277 37 22 46 23 179 18 84 -3 179 -13 238 -26z
m2124 -2426 c14 -11 63 -80 109 -153 137 -219 191 -288 339 -437 283 -284 557
-417 902 -440 l98 -6 -60 63 c-33 35 -137 143 -232 239 -204 208 -217 233
-173 319 30 60 78 84 151 79 l61 -4 389 -390 389 -390 0 -52 c0 -29 -6 -65
-14 -80 -8 -15 -185 -196 -393 -404 -400 -398 -400 -398 -478 -384 -45 9 -84
42 -106 90 -23 51 -24 78 -3 119 9 18 119 136 245 262 l229 230 -98 3 c-139 4
-269 28 -412 75 -276 91 -503 239 -735 478 -131 136 -219 252 -345 453 -108
172 -120 214 -78 276 39 57 85 83 141 77 27 -2 60 -13 74 -23z"/>
</g>
</svg>
